<svg width="456" height="25" viewBox="0 0 456 25" fill="none" xmlns="http://www.w3.org/2000/svg">
<path d="M6.50001 2.99996C-18.5008 2.99996 56.5029 2.82066 81.5 2.38885C104.066 1.99902 126.429 1.06906 149 2.33329C174.202 3.74487 199.192 5.62531 224.444 6.27773C246.371 6.84424 268.294 6.92228 290.222 7.38885C302.604 7.65228 315.002 8.38653 327.389 7.88885C342.056 7.29954 356.224 3.50304 370.833 2.74996C382.91 2.12747 395.385 1.93025 407.444 2.80551C417.205 3.51394 426.863 4.49996 436.667 4.49996C442.241 4.49996 447.815 4.49996 453.389 4.49996C454.948 4.49996 455.718 5.29719 454.056 5.47218C447.408 6.17193 440.958 5.82296 434.278 6.97218C419.941 9.43866 405.46 8.65218 391.083 10.4166C377.452 12.0896 364.72 16.5609 350.889 17C337.743 17.4173 325.357 20.0305 312.167 18.5C293.368 16.3185 274.311 15.1093 255.389 15C246.968 14.9513 238.643 13.5513 230.222 13.5C222.519 13.453 214.814 13.5 207.111 13.5C190.031 13.5 172.966 12.7428 155.889 12.5C146.82 12.371 137.863 10.8056 128.833 10.1111C127.168 9.98296 118.843 8.97783 118.056 10.75C117.242 12.5811 128.465 13.9366 129.139 14.0555C137.502 15.5313 146.017 17.5391 154.528 17.9444C162.508 18.3244 170.344 17.7191 178.278 19.0277C186.985 20.464 195.689 21.6054 204.5 22.2222C222.503 23.4824 240.691 22.3009 258.722 23.25C271.276 23.9107 283.926 24 296.5 24" stroke="black" stroke-width="2" stroke-linecap="round"/>
</svg>
