<svg width="332" height="31" viewBox="0 0 332 31" fill="none" xmlns="http://www.w3.org/2000/svg">
<path d="M331 1C308.887 1 286.792 2 264.667 2C187.936 2 111.18 1.16244 34.5 4.44444C26.4434 4.78928 14.4724 3.54625 6.44444 6.22222C5.66042 6.48357 5.5728 7 4.61111 7C-11.7963 7 37.4274 6.88866 53.8333 7.11111C110.523 7.87978 166.433 14.0535 222.667 20.5556C227.473 21.1113 241.95 22 237.111 22C205.225 22 173.3 21.5836 141.444 23.2222C126.197 24.0065 110.798 24.9178 95.6111 26.5556C90.954 27.0578 87.0029 27.7126 83 30" stroke="black" stroke-width="2" stroke-linecap="round"/>
</svg>
